<svg xmlns="http://www.w3.org/2000/svg" viewBox="0 0 395.44 42.04"><defs><style>.cls-1{fill:#fff;}</style></defs><g id="Layer_2" data-name="Layer 2"><g id="Layer_1-2" data-name="Layer 1"><path class="cls-1" d="M174.32,3.29c0,2.83,0,2.83-3,2.83H153V18.19h17.23c2.89,0,2.89,0,2.89,2.68s0,2.68-2.89,2.68H153V35.83h18.45c3,0,3,0,3,2.77s0,2.88-3,2.88H151.73c-4.67,0-4.67,0-4.67-4.6V5.07c0-4.52,0-4.52,4.67-4.57h19.62C174.32.5,174.32.5,174.32,3.29Z"></path><path class="cls-1" d="M237.64.5c3,0,3,0,3,3.06v32h17.78c3,0,3,0,3,3s0,2.91-3,2.91H238.8c-4.13,0-4.13,0-4.13-4.11V3.56C234.67.5,234.67.5,237.64.5Z"></path><path class="cls-1" d="M391.88,3.32c.79.56,1.17.88,1.17,1.4s-.15.67-1.17,2.16S390.54,8.8,390,8.8s-1-.4-2.05-1a14.84,14.84,0,0,0-8-2.13c-6.09,0-8.4,2.83-8.4,6,0,3.38,2.28,4.81,9.42,6.15C391,19.82,395.44,23,395.44,29.76,395.44,37,389.81,42,380.31,42a23,23,0,0,1-14.11-4.26c-1-.73-1.52-1.19-1.52-1.84S365,35,366,33.79,367.31,32,368,32c.43,0,.9.44,1.95,1.11a17.2,17.2,0,0,0,10.67,3.12c5.51,0,8.86-2.39,8.86-6.45,0-3.41-3-4.87-10.14-6.21-9.6-1.86-13.76-5.16-13.76-11.83C365.56,4.58,371.27,0,379.93,0A21,21,0,0,1,391.88,3.32Z"></path><path class="cls-1" d="M87.19,2.91C85.92.23,85.92.23,83,1.63l-16.9,8L48.89,1.5c-3-1.42-3-1.42-4.28,1.27S43.36,5.4,46.38,6.83L63.05,14.7V38c0,3.41,0,3.41,3,3.41s2.91,0,2.91-3.41V14.76L85.47,7C88.44,5.55,88.44,5.55,87.19,2.91Z"></path><path class="cls-1" d="M32.09,9.5a6.26,6.26,0,0,1,.58,1.9c0,.64-.67.84-2.13,1.46a9.27,9.27,0,0,1-2.39.81c-.61,0-.7-.67-1.25-1.63a10.65,10.65,0,0,0-9.8-6.33c-6.35,0-10.46,4.76-11,11.14a70.07,70.07,0,0,0,0,8.45c.53,6.48,4.64,11,11,11a10.46,10.46,0,0,0,9.68-6.23c.62-1.14.62-1.78,1.4-1.78a8.83,8.83,0,0,1,2.31.67c2.06.73,2.18.73,2.18,1.51a7.26,7.26,0,0,1-.73,2.25A15.89,15.89,0,0,1,17.1,42C7.51,42,.9,35,.2,25.71a54.18,54.18,0,0,1,0-9.36C.87,7.17,7.51,0,17.1,0,23.66,0,29.73,3.61,32.09,9.5Z"></path><path class="cls-1" d="M126.31,20.32v-.09c3-1.25,5.3-3.93,5.3-9.06C131.61,5.48,127.47.5,119.86.5H106.8c-4.63,0-4.63,0-4.63,4.57V36.88c0,4.6,0,4.6,4.63,4.6h13.5c6.94,0,12.45-3.47,12.45-11.72C132.75,24.84,130.27,21.37,126.31,20.32ZM108.09,6.12h11.19c4.26,0,6.47,2,6.47,5.92,0,3.64-2,5.92-6.47,5.92h-4.84a.43.43,0,0,0-.43.43v4.09a.43.43,0,0,0,.43.43h5.29a7,7,0,0,1,6.84,8.68c-.71,2.78-2.94,4.3-6.88,4.3H108.06Z"></path><path class="cls-1" d="M219.74,36.88l-9.23-11.1a.7.7,0,0,1,.36-1.13c5.31-1.39,8.23-5.4,8.23-11.3C219.1,5.48,213.68.5,205.6.5H193.74c-4.46,0-4.46,0-4.46,4.31V38.68c0,2.8,0,2.8,3,2.8s3,0,3-2.8V6.8a.71.71,0,0,1,.71-.71h9.29c5.36,0,7.9,2.89,7.9,7.29s-2.24,7.17-8.51,7.17h-2.83a.71.71,0,0,0-.71.71v4.15a.71.71,0,0,0,.71.71h0c1.46,0,1.52,0,2.36,1.05l11,13.64c.56.7.94,1,1.4,1s1-.29,2.25-1.34c1.51-1.25,1.72-1.63,1.72-2.13A2.3,2.3,0,0,0,219.74,36.88Z"></path><path class="cls-1" d="M309.5,37.46l-12.33-34C296.12.5,296.12.5,291.19.5s-4.81,0-5.86,2.88L272.79,37.66a6,6,0,0,0-.52,1.84c0,.61.5.9,2.54,1.57a8.33,8.33,0,0,0,2.27.59c.58,0,.79-.53,1.22-1.81L289.91,7.38c.4-1.08.4-1.08,1.31-1.08s.93,0,1.31,1l5.32,15a.71.71,0,0,1-.67.94H291a.7.7,0,0,0-.7.71v4a.7.7,0,0,0,.7.71h8.59a.71.71,0,0,1,.67.47l3.85,10.84c.56,1.54.76,1.72,1.29,1.72a9.47,9.47,0,0,0,2.47-.64c1.87-.67,2.31-1,2.31-1.55A7.89,7.89,0,0,0,309.5,37.46Z"></path><path class="cls-1" d="M346.23,20.32v-.09c3-1.25,5.31-3.93,5.31-9.06C351.54,5.48,347.4.5,339.79.5H326.73c-4.63,0-4.63,0-4.63,4.57V36.88c0,4.6,0,4.6,4.63,4.6h13.5c6.94,0,12.45-3.47,12.45-11.72C352.68,24.84,350.2,21.37,346.23,20.32ZM328,6.12h11.2c4.25,0,6.47,2,6.47,5.92,0,3.64-2,5.92-6.47,5.92h-4.84a.44.44,0,0,0-.44.43v4.09a.44.44,0,0,0,.44.43h5.28a7,7,0,0,1,6.85,8.68c-.72,2.78-2.94,4.3-6.88,4.3H328Z"></path></g></g></svg>